<svg width="24" height="24" viewBox="0 0 24 24" fill="none" xmlns="http://www.w3.org/2000/svg">
<path fill-rule="evenodd" clip-rule="evenodd" d="M18.053 21.1556L21.5535 10.1542L14.1144 10.1542L15.5855 6.30975C15.9783 5.28306 15.6376 4.12041 14.7528 3.46815L13.6849 2.68094L7.93617 10.1542L6.72308 10.1542L6.72308 21.1556L18.053 21.1556ZM20.2472 22.3228C20.0051 23.0837 19.2984 23.6004 18.5 23.6004L4.27832 23.6004L4.27833 7.70948H6.73237L12.1122 0.715721C12.7207 -0.0753367 13.8501 -0.234427 14.6535 0.357756L16.2034 1.50026C17.9731 2.8048 18.6545 5.13009 17.8688 7.18346L17.6675 7.70948L21.5535 7.70948C23.2081 7.70948 24.3849 9.31876 23.8832 10.8955L20.2472 22.3228ZM3.94806e-10 23.6004L3.94808e-10 7.70948H2.44476L2.44476 23.6004H3.94806e-10Z" fill="#4E5969"/>
</svg>
